<?xml version="1.0" encoding="UTF-8"?> <svg xmlns="http://www.w3.org/2000/svg" width="63" height="64" viewBox="0 0 63 64" fill="none"><g clip-path="url(#clip0)"><path d="M0 32V64H31.2054H62.4108V32V0H31.2054H0V32Z" fill="#007ACC"></path><path d="M13.7986 32.2L13.7743 34.825H17.8456H21.9169V46.6499V58.4999H24.7937H27.6704V46.6749V34.8499H31.7417H35.8131V32.275C35.8131 30.85 35.7887 29.675 35.7399 29.625C35.7155 29.575 30.7666 29.575 24.7693 29.575L13.8718 29.6L13.7986 32.2Z" fill="white"></path><path d="M50.3674 29.525C51.9521 29.925 53.171 30.65 54.2681 31.825C54.8532 32.45 55.7065 33.6 55.7552 33.875C55.7796 33.95 53.0491 35.825 51.4157 36.875C51.367 36.925 51.1232 36.65 50.855 36.25C50.0505 35.05 49.2216 34.525 47.9295 34.45C46.0279 34.325 44.809 35.325 44.8333 37.025C44.8333 37.525 44.9065 37.825 45.1015 38.225C45.516 39.1 46.2961 39.625 48.7096 40.725C53.171 42.7 55.097 44 56.2672 45.85C57.5837 47.9 57.9006 51.2 56.9986 53.65C55.999 56.3 53.5611 58.125 50.0993 58.725C49.0266 58.925 46.4911 58.9 45.3453 58.675C42.8342 58.225 40.4695 56.95 39.0067 55.275C38.4216 54.625 37.3245 52.925 37.3733 52.8C37.3977 52.75 37.6659 52.6 37.9584 52.425C38.2266 52.25 39.2749 51.65 40.2744 51.05L42.0785 49.975L42.4442 50.55C42.9805 51.375 44.1263 52.5 44.809 52.875C46.8081 53.95 49.5385 53.8 50.8794 52.55C51.4645 52 51.6839 51.45 51.6839 50.625C51.6839 49.875 51.5864 49.55 51.2207 49C50.7331 48.3 49.7336 47.7 46.93 46.45C43.7119 45.025 42.3223 44.15 41.0546 42.75C40.3232 41.925 39.6162 40.625 39.348 39.55C39.1042 38.65 39.0555 36.375 39.2505 35.475C39.9087 32.275 42.2735 30.05 45.6622 29.4C46.7349 29.175 49.2704 29.25 50.3674 29.525Z" fill="white"></path></g><defs><clipPath id="clip0"><rect width="62.4108" height="64" fill="white"></rect></clipPath></defs></svg> 